PathFileType	4	(X/Y/Z)	\\147.46.242.158\로컬 디스크 (e)\MOCAP Data\Iguana Capture\iguana\Project 2\Capture day 5 after broken\Session 1\Take01 ddong.trc
DataRate	CameraRate	NumFrames	NumMarkers	Units	OrigDataRate	OrigDataStartFrame	OrigNumFrames
120.0	120.0	11	23	mm	120.0	300	23111
Frame#	Time	ana:head1			ana:head2			ana:bone1			ana:bone2			ana:bone3			ana:tail1			ana:tail2			ana:tail3			ana:tail4			ana:Rforefoot1			ana:Rforefoot2			ana:Rforefoot3			ana:Lforefoot1			ana:Lforefoot2			ana:Lforefoot3			ana:RhindLeg1			ana:RhindLeg2			ana:RhindLeg3			ana:RhindLeg4			ana:LhindLeg1			ana:LhindLeg2			ana:LhindLeg3			ana:LhindLeg4			
		X1	Y1	Z1	X2	Y2	Z2	X3	Y3	Z3	X4	Y4	Z4	X5	Y5	Z5	X6	Y6	Z6	X7	Y7	Z7	X8	Y8	Z8	X9	Y9	Z9	X10	Y10	Z10	X11	Y11	Z11	X12	Y12	Z12	X13	Y13	Z13	X14	Y14	Z14	X15	Y15	Z15	X16	Y16	Z16	X17	Y17	Z17	X18	Y18	Z18	X19	Y19	Z19	X20	Y20	Z20	X21	Y21	Z21	X22	Y22	Z22	X23	Y23	Z23	

7526	62.708	305.43091	246.38844	37.64898	314.43604	240.29224	40.46422	331.25009	226.69717	37.61705	354.09015	208.45647	37.98414	386.35303	194.65823	32.97013	417.24191	186.36670	26.11809	444.95139	168.09956	16.83257	475.89969	149.55750	7.24540	509.36853	126.45130	3.88333	340.53268	233.53423	23.12002	355.60959	232.45331	19.71867	352.15775	231.04095	3.57942	319.00906	221.20935	22.25415	308.96933	214.11887	17.11220	300.87564	223.33313	5.00897	386.18024	204.58215	27.56467	376.67020	219.07524	29.32290	387.96725	225.07707	15.51773	380.74985	235.27504	12.28225	385.23990	183.20520	25.35656	385.04099	166.48592	19.50407	398.39841	156.27658	9.67985	387.28568	153.89919	3.52580	
7527	62.717	304.17972	247.20538	37.26164	313.15417	241.08994	40.06940	330.03421	227.59987	37.28925	352.99136	209.48141	37.74967	385.22366	195.81343	32.68086	416.26505	187.77731	25.84647	443.99890	169.56346	16.57168	474.81287	150.75610	7.11567	508.05505	127.26289	3.90750	339.47595	234.42131	22.97463	354.62381	233.02838	19.84452	351.98175	231.29439	3.65916	317.93085	221.84587	21.72942	308.32968	214.48596	16.39691	300.55460	223.36374	3.92925	384.97913	205.82773	27.19328	375.28442	220.20300	28.51251	385.88483	227.00130	14.00335	377.83490	236.89874	10.71319	384.32864	184.42442	25.16474	384.60486	167.59357	19.58619	398.06012	156.93562	10.22427	387.18222	154.05829	3.73443	
7528	62.725	302.86362	248.00954	36.82593	311.81512	241.88866	39.63126	328.77692	228.51994	36.94487	351.88281	210.55730	37.52060	384.08859	196.95277	32.39979	415.24170	189.10202	25.57723	443.01266	170.96130	16.31321	473.70285	151.91760	6.97784	506.73853	128.07063	3.93883	338.36594	235.33437	22.80859	353.58002	233.64546	19.93751	351.80984	231.62219	3.75366	316.88467	222.41739	21.26988	307.85342	214.64984	15.89488	300.33746	223.27379	3.16546	383.83148	207.05295	26.78758	374.26511	221.43031	27.64524	384.24667	228.49892	12.52212	375.72723	238.05437	9.11626	383.36896	185.64226	24.98734	384.08530	168.72357	19.68926	397.64975	157.64723	10.83862	387.06290	154.26117	3.98951	
7529	62.733	301.49619	248.79799	36.34941	310.43652	242.68968	39.16233	327.49463	229.45448	36.59436	350.77689	211.67711	37.30106	382.96387	198.07169	32.13769	414.18256	190.33000	25.31691	442.00015	172.27832	16.06391	472.58124	153.03172	6.83749	505.43149	128.87061	3.97313	337.21805	236.26410	22.62296	352.49091	234.29010	19.99784	351.63248	232.00572	3.87175	315.87405	222.93695	20.88307	307.50409	214.65121	15.58584	300.21698	223.12607	2.69725	382.74899	208.25510	26.36510	373.56726	222.75641	26.75888	383.03519	229.57477	11.10999	374.38245	238.80716	7.57716	382.37054	186.84669	24.83196	383.48251	169.86742	19.82232	397.15750	158.41692	11.51974	386.92474	154.51466	4.29526	
7530	62.742	300.09430	249.56902	35.83982	309.03738	243.49333	38.67430	326.20450	230.39983	36.24767	349.68573	212.83261	37.09528	381.86414	199.16820	31.90575	413.09982	191.45531	25.07449	440.97034	173.50409	15.83237	471.46042	154.09151	6.70182	504.14600	129.65846	4.00620	336.04904	237.20131	22.42000	351.37149	234.94832	20.03010	351.43820	232.41658	4.02354	314.90088	223.42004	20.57172	307.24277	214.54082	15.44247	300.18204	222.97040	2.48333	381.74124	209.43158	25.94655	373.13467	224.16518	25.88968	382.21396	230.26192	9.80122	373.70923	239.23782	6.17352	381.34439	188.02861	24.70639	382.79898	171.01759	19.99325	396.57532	159.24550	12.25903	386.76260	154.81966	4.65169	
7531	62.750	298.67636	250.32262	35.30469	307.63632	244.29878	38.17705	324.92242	231.35170	35.91347	348.61990	214.01463	36.90729	380.80084	200.24203	31.71437	412.00589	192.47673	24.86032	439.93219	174.63286	15.62806	470.35172	155.09326	6.57871	502.89212	130.42972	4.03447	334.87500	238.13823	22.20355	350.23709	235.60930	20.04368	351.21548	232.82085	4.21927	313.96503	223.88304	20.33373	307.03174	214.37398	15.43357	300.21747	222.84187	2.46767	380.81421	210.57957	25.55360	372.90555	225.62758	25.06938	381.73117	230.61694	8.62632	373.58038	239.43315	4.96742	380.30115	189.18176	24.61774	382.03885	172.16713	20.20748	395.89755	160.12695	13.04319	386.56940	155.17021	5.05467	
7532	62.758	297.26126	251.06038	34.75104	306.24982	245.10422	37.67789	323.66165	232.30544	35.59858	347.58667	215.21352	36.74060	379.78113	201.29388	31.57190	410.91171	193.39728	24.68487	438.89389	175.66321	15.46019	469.26425	156.03659	6.47576	501.67761	131.18030	4.05559	333.70923	239.06953	21.97930	349.10138	236.26752	20.05259	350.95444	233.18466	4.46775	313.06500	224.34137	20.16253	306.83762	214.20483	15.52711	300.30426	222.76051	2.58682	379.96948	211.69603	25.20639	372.81781	227.10590	24.32270	381.52414	230.71312	7.60991	373.84708	239.47658	3.99982	379.24988	190.30264	24.57171	381.20709	173.30920	20.46720	395.12115	161.04727	13.85549	386.33603	155.55385	5.49644	
7533	62.767	295.86649	251.78549	34.18522	304.89114	245.90685	37.18141	322.43167	233.25626	35.30755	346.58994	216.41951	36.59788	378.80731	202.32434	31.48367	409.82571	194.22334	24.55735	437.86142	176.59799	15.33653	468.20389	156.92354	6.39937	500.50720	131.90698	4.06878	332.56027	239.99297	21.75482	347.97427	236.92419	20.07468	350.64844	233.48105	4.77477	312.19806	224.80786	20.04798	306.63370	214.08089	15.69294	300.42108	222.73282	2.77734	379.20367	212.77754	24.92128	372.81436	228.55852	23.66566	381.52444	230.63199	6.76887	374.35455	239.44073	3.28771	378.19757	191.39015	24.57191	380.30933	174.43680	20.77098	394.24545	161.98511	14.67774	386.05194	155.95322	5.96685	
7534	62.775	294.50711	252.50198	33.61281	303.56958	246.70325	36.68961	321.23795	234.19939	35.04261	345.62949	217.62343	36.48080	377.87683	203.33334	31.45130	408.75345	194.96382	24.48447	436.83868	177.44328	15.26253	467.17313	157.75816	6.35404	499.38275	132.60785	4.07498	331.43091	240.90941	21.53937	346.86008	237.58771	20.13016	350.29443	233.69666	5.14168	311.36093	225.29160	19.97738	306.40179	214.03862	15.90478	300.54626	222.75453	2.98249	378.50858	213.82065	24.70904	372.84705	229.94536	23.10485	381.66339	230.45457	6.11091	374.95712	239.38211	2.82409	377.14859	192.44495	24.61948	379.35110	175.54285	21.11396	393.27231	162.91385	15.49229	385.70615	156.34856	6.45480	
7535	62.783	293.19473	253.21414	33.03865	302.29031	247.48964	36.20250	320.08185	235.13054	34.80381	344.70203	218.81693	36.38984	376.98337	204.31975	31.47248	407.69720	195.62920	24.46956	435.82703	178.20773	15.24054	466.17114	158.54572	6.34185	498.30362	133.28249	4.07665	330.31747	241.82246	21.34334	345.75632	238.27293	20.23982	349.89209	233.83748	5.56451	310.55038	225.79694	19.93685	306.13245	214.10048	16.14157	300.65997	222.81407	3.15746	377.87225	214.82205	24.57368	372.87921	231.23248	22.63773	381.87717	230.25348	5.63384	375.53152	239.33844	2.58084	376.10492	193.46884	24.71300	378.33743	176.62038	21.48862	392.20557	163.80522	16.28401	385.28833	156.72110	6.94999	
7536	62.792	291.93698	253.92563	32.46686	301.05487	248.26218	35.71888	318.96155	236.04579	34.58937	343.80167	219.99304	36.32434	376.11777	205.28125	31.54123	406.65680	196.23055	24.51201	434.82593	178.90158	15.26959	465.19446	159.29190	6.36235	497.26703	133.93217	4.07739	329.21060	242.73755	21.17747	344.65344	238.99947	20.42290	349.44244	233.93263	6.03373	309.76367	226.32343	19.91260	305.82458	214.27411	16.38792	300.74603	222.89619	3.27265	377.28006	215.77902	24.51219	372.88724	232.39590	22.25383	382.11108	230.08629	5.32573	375.98611	239.32896	2.51385	375.06647	194.46426	24.84856	377.27283	177.66312	21.88588	391.05127	164.63374	17.04182	384.79037	157.05632	7.44457	
